<?xml version="1.0" standalone="no"?>
<!DOCTYPE svg PUBLIC "-//W3C//DTD SVG 20010904//EN"
 "http://www.w3.org/TR/2001/REC-SVG-20010904/DTD/svg10.dtd">
<svg version="1.0" xmlns="http://www.w3.org/2000/svg"
 width="177.000000pt" height="177.000000pt" viewBox="0 0 177.000000 177.000000"
 preserveAspectRatio="xMidYMid meet">
<metadata>
Created by potrace 1.11, written by Peter Selinger 2001-2013
</metadata>
<g transform="translate(0.000000,177.000000) scale(0.100000,-0.100000)"
fill="#000000" stroke="none">
<path d="M457 1518 c3 -139 9 -258 14 -264 4 -5 6 -20 3 -31 -4 -15 -1 -23 13
-26 12 -3 9 -5 -9 -6 -16 0 -28 -5 -28 -10 0 -5 -15 -12 -32 -16 -46 -8 -184
-44 -238 -61 l-45 -14 50 5 c28 2 99 10 158 16 59 6 111 8 115 5 15 -16 28
-179 17 -224 -4 -15 -2 -21 5 -17 6 4 10 -4 10 -20 0 -23 3 -25 23 -20 21 6
20 5 -4 -17 -20 -17 -29 -36 -33 -74 -4 -28 -14 -75 -24 -104 l-18 -53 -50 58
c-27 32 -62 73 -79 90 -16 17 -41 46 -55 64 -40 53 -52 62 -67 57 -8 -3 -20
-6 -26 -6 -7 0 -20 -7 -30 -15 -21 -15 -29 -2 74 -120 24 -28 54 -63 65 -78
12 -15 26 -27 32 -27 5 0 17 -10 25 -22 9 -13 27 -36 42 -53 17 -19 24 -37 21
-50 -7 -28 -77 -145 -87 -145 -4 0 -18 -17 -30 -37 -13 -21 -28 -43 -34 -49
-5 -6 -17 -22 -25 -34 -24 -36 -81 -100 -134 -152 -55 -53 -54 -58 7 -27 44
23 97 73 162 155 22 27 49 58 60 70 34 35 59 67 94 124 19 30 36 57 37 58 4 6
63 -62 64 -72 0 -5 -6 -3 -14 3 -10 8 -16 9 -21 1 -3 -5 -4 -11 -1 -11 3 -1 9
-2 14 -3 4 -1 13 -5 21 -10 10 -6 12 -5 7 2 -11 18 10 14 25 -5 8 -9 9 -14 4
-11 -6 4 -17 3 -25 -3 -11 -6 -7 -9 15 -9 23 0 46 -16 100 -66 103 -95 106
-97 154 -84 23 6 41 14 41 18 0 4 -34 34 -75 66 -41 32 -75 60 -75 62 0 2 81
4 179 4 l179 0 16 -57 16 -58 -5 61 -4 62 314 7 c174 4 317 11 320 15 3 4 0
108 -5 230 -6 122 -13 288 -15 369 -3 80 -12 295 -20 476 -8 182 -15 331 -15
333 0 1 -265 2 -589 2 l-589 0 5 -252z m49 -968 c-3 -23 -1 -40 4 -40 6 0 10
5 10 11 0 5 5 7 10 4 18 -11 11 -22 -12 -21 -25 1 -33 23 -24 62 10 39 18 28
12 -16z m15 -3 c-10 -9 -11 -8 -5 6 3 10 9 15 12 12 3 -3 0 -11 -7 -18z"/>
<path d="M460 850 c0 -5 5 -10 10 -10 6 0 10 5 10 10 0 6 -4 10 -10 10 -5 0
-10 -4 -10 -10z"/>
<path d="M470 819 c0 -5 5 -7 10 -4 6 3 10 8 10 11 0 2 -4 4 -10 4 -5 0 -10
-5 -10 -11z"/>
</g>
</svg>
